# xmcd
#
# Track frame offsets: 
#        150
#        24634
#        44847
#        63296
#        81501
#        97623
#        117119
#        136317
#        153951
#        180793
#        197848
#        216155
#        236355
#
# Disc length: 3462 seconds
#
# Revision: 0
# Processed by: cddbd v1.5.2PL0 Copyright (c) Steve Scherf et al.
# Submitted via: ExactAudioCopy v1.0b4
#
DISCID=a50d840d
DTITLE=Kim Simmonds And Savoy Brown - The Devil To Pay
DYEAR=2015
DGENRE=Blues
TTITLE0=Ain't Got Nobody
TTITLE1=Bad Weather Brewing
TTITLE2=Grew up in the Blues
TTITLE3=When Love Goes Wrong
TTITLE4=Oh Rosa
TTITLE5=The Devil to Pay
TTITLE6=Stop Throwing Your Love Around
TTITLE7=Snakin'
TTITLE8=Got an Awful Feeling
TTITLE9=I've Been Drinking
TTITLE10=Watch My Woman
TTITLE11=Whiskey Headed Baby
TTITLE12=Evil Eye
EXTD=
EXTT0=
EXTT1=
EXTT2=
EXTT3=
EXTT4=
EXTT5=
EXTT6=
EXTT7=
EXTT8=
EXTT9=
EXTT10=
EXTT11=
EXTT12=
PLAYORDER=
